<svg fill="{{ .fill }}" width="{{ .width }}" height="{{ .height }}" viewBox="0 0 72 72" version="1.1" xmlns="http://www.w3.org/2000/svg" xmlns:xlink="http://www.w3.org/1999/xlink">
    <title>Fill 58</title>
    <g id="Page-1" stroke="none" stroke-width="1" fill="none" fill-rule="evenodd">
        <path d="M39.7333205,42.913828 C38.0519194,45.1209845 36.0462689,46.2385321 33.7112341,46.2385321 C32.1207987,46.2385321 30.8421416,45.4254446 29.8752625,43.7992696 C28.8951788,42.1738109 28.4036697,40.1557778 28.4036697,37.7308428 C28.4036697,34.7406866 29.0881144,32.3300791 30.4555367,30.5011694 C31.8229589,28.6715434 33.5182984,27.7431193 35.5400879,27.7431193 C37.2948487,27.7431193 38.8552066,28.4251099 40.2233624,29.8041349 C41.5915182,31.18316 42.2752294,33.012786 42.2752294,35.3066241 C42.2598238,38.1663998 41.4132545,40.6930603 39.7333205,42.913828 Z M61.4877595,9.07664123 C54.9250373,3.02506392 46.7620221,0 37.0132029,0 C26.765243,0 18.029194,3.43671612 10.8209937,10.3253679 C3.61134456,17.2140197 0,25.7768204 0,36.0289896 C0,45.8557365 3.4353051,54.3011294 10.2921509,61.3803877 C17.1779744,68.4596461 26.4276529,72 38.0701641,72 C45.0878361,72 51.9736596,70.5606668 58.7276346,67.6667807 C60.929939,66.7267932 62.0021135,64.2003503 61.1067029,61.9826465 C60.1815902,59.691744 57.5678026,58.6336239 55.2923295,59.6033258 C49.4192763,62.1290439 43.6643071,63.3929902 38.0549508,63.3929902 C29.129098,63.3929902 22.2135724,60.6752159 17.3098229,55.2266221 C12.4212866,49.7917984 9.96904966,43.4024923 9.96904966,36.0731987 C9.96904966,28.1126568 12.5973261,21.4733155 17.8386657,16.1421295 C23.0655165,10.8247136 29.5108791,8.15114851 37.1450514,8.15114851 C44.1779367,8.15114851 50.1241586,10.3398627 54.9692283,14.7172911 C59.814298,19.0939947 62.2368328,24.6020172 62.2368328,31.2406337 C62.2368328,35.7796791 61.1204673,39.5693435 58.9043985,42.5799126 C56.6868808,45.6057013 54.3817056,47.1037384 51.9888729,47.1037384 C50.6964679,47.1037384 50.0502654,46.4137862 50.0502654,45.0179373 C50.0502654,43.8873432 50.1386474,42.5654178 50.300198,41.0376663 L53.0313453,18.6975621 L43.6353294,18.6975621 L43.0325935,20.8862762 C40.6397608,18.9331025 38.0114843,17.9489058 35.1637019,17.9489058 C30.641009,17.9489058 26.765243,19.7549574 23.5494439,23.3532905 C20.3198804,26.9523484 18.7195875,31.5928573 18.7195875,37.2632215 C18.7195875,42.8002335 20.1438409,47.2798502 23.0061122,50.673082 C25.8698324,54.0808085 29.3051375,55.770177 33.3279652,55.770177 C36.924821,55.770177 39.9942827,54.2569203 42.5486661,51.2456264 C44.4713358,54.1395124 47.3053538,55.5788457 51.0492713,55.5788457 C56.5543079,55.5788457 61.3109956,53.1850301 65.320059,48.3814547 C69.3283979,43.5938236 71.3394495,37.8067763 71.3394495,31.0348076 C71.3394495,22.4575121 68.0649706,15.1282185 61.4877595,9.07664123 L61.4877595,9.07664123 Z" id="Fill-58" fill="{{ .fill }}"></path>
    </g>
</svg>