<svg fill="{{ .fill }}" width="{{ .width }}" height="{{ .height }}"  viewBox="0 0 72 72" version="1.1" xmlns="http://www.w3.org/2000/svg" xmlns:xlink="http://www.w3.org/1999/xlink">
    <title>instagram</title>
    <defs>
        <polygon id="path-1" points="0 0 72 0 72 72 0 72"></polygon>
    </defs>
    <g id="Page-1" stroke="none" stroke-width="1" fill="none" fill-rule="evenodd">
        <g id="instagram">
            <g id="Group-3">
                <mask id="mask-2" fill="white">
                    <use xlink:href="#path-1"></use>
                </mask>
                <g id="Clip-2"></g>
                <path d="M36.0000715,0 C26.222987,0 24.9970288,0.041446581 21.157246,0.216665575 C17.3254658,0.391455811 14.7084973,1.00014887 12.4186321,1.89024993 C10.0513138,2.81022111 8.04368045,4.04132748 6.04219188,6.0429115 C4.04084622,8.04463844 2.80988645,10.0525109 1.89002483,12.4201111 C1.00002977,14.7102491 0.391409195,17.3275292 0.216639773,21.1597659 C0.0414416453,25 0,26.2261102 0,36.004359 C0,45.782465 0.0414416453,47.0085692 0.216639773,50.8488093 C0.391409195,54.6810459 1.00002977,57.2983261 1.89002483,59.588464 C2.80988645,61.9560642 4.04084622,63.9639367 6.04219188,65.9656637 C8.04368045,67.9672477 10.0513138,69.198354 12.4186321,70.1184681 C14.7084973,71.0084263 17.3254658,71.6171193 21.157246,71.7919096 C24.9970288,71.9671286 26.222987,72.0085752 36.0000715,72.0085752 C45.777013,72.0085752 47.0029712,71.9671286 50.842754,71.7919096 C54.6745342,71.6171193 57.2915027,71.0084263 59.5813679,70.1184681 C61.9486862,69.198354 63.9563196,67.9672477 65.9578081,65.9656637 C67.9591538,63.9639367 69.1901135,61.9560642 70.1101181,59.588464 C70.9999702,57.2983261 71.6085908,54.6810459 71.7833602,50.8488093 C71.9585584,47.0085692 72,45.782465 72,36.004359 C72,26.2261102 71.9585584,25 71.7833602,21.1597659 C71.6085908,17.3275292 70.9999702,14.7102491 70.1101181,12.4201111 C69.1901135,10.0525109 67.9591538,8.04463844 65.9578081,6.0429115 C63.9563196,4.04132748 61.9486862,2.81022111 59.5813679,1.89024993 C57.2915027,1.00014887 54.6745342,0.391455811 50.842754,0.216665575 C47.0029712,0.041446581 45.777013,0 36.0000715,0 Z M36.0000715,6.48724743 C45.6123896,6.48724743 46.7510346,6.52397768 50.5470893,6.69719581 C54.0570537,6.85726536 55.9632265,7.44380594 57.2317695,7.93687733 C58.9121568,8.59001828 60.1113923,9.37021444 61.3710754,10.6301905 C62.6309014,11.8900236 63.4110047,13.0894019 64.0640678,14.7699893 C64.5570805,16.0386835 65.1435512,17.9450833 65.3036017,21.4554658 C65.4767992,25.2519726 65.5135251,26.3907531 65.5135251,36.004359 C65.5135251,45.617822 65.4767992,46.7566026 65.3036017,50.5531094 C65.1435512,54.0634919 64.5570805,55.9698917 64.0640678,57.2385858 C63.4110047,58.9191732 62.6309014,60.1185515 61.3710754,61.3783847 C60.1113923,62.6383607 58.9121568,63.4185569 57.2317695,64.0716978 C55.9632265,64.5647692 54.0570537,65.1513098 50.5470893,65.3113793 C46.7516062,65.4845975 45.6131041,65.5213277 36.0000715,65.5213277 C26.3868959,65.5213277 25.2485367,65.4845975 21.4529107,65.3113793 C17.9429463,65.1513098 16.0367735,64.5647692 14.7682305,64.0716978 C13.0878432,63.4185569 11.8886077,62.6383607 10.6289246,61.3783847 C9.36924149,60.1185515 8.58899534,58.9191732 7.93593217,57.2385858 C7.44291949,55.9698917 6.85644876,54.0634919 6.69639827,50.5531094 C6.52320077,46.7566026 6.4864749,45.617822 6.4864749,36.004359 C6.4864749,26.3907531 6.52320077,25.2519726 6.69639827,21.4554658 C6.85644876,17.9450833 7.44291949,16.0386835 7.93593217,14.7699893 C8.58899534,13.0894019 9.36909858,11.8900236 10.6289246,10.6301905 C11.8886077,9.37021444 13.0878432,8.59001828 14.7682305,7.93687733 C16.0367735,7.44380594 17.9429463,6.85726536 21.4529107,6.69719581 C25.2489654,6.52397768 26.3876104,6.48724743 36.0000715,6.48724743 L36.0000715,6.48724743 Z" id="Fill-1" fill="{{ .fill }}" mask="url(#mask-2)"></path>
            </g>
            <path d="M36.3334042,48.2339256 C29.760787,48.2339256 24.4327411,42.9058796 24.4327411,36.3334042 C24.4327411,29.760787 29.760787,24.4327411 36.3334042,24.4327411 C42.9058796,24.4327411 48.2339256,29.760787 48.2339256,36.3334042 C48.2339256,42.9058796 42.9058796,48.2339256 36.3334042,48.2339256 Z M36.3334042,18 C26.2080478,18 18,26.2080478 18,36.3334042 C18,46.4586189 26.2080478,54.6666667 36.3334042,54.6666667 C46.4586189,54.6666667 54.6666667,46.4586189 54.6666667,36.3334042 C54.6666667,26.2080478 46.4586189,18 36.3334042,18 L36.3334042,18 Z" id="Fill-4" fill="{{ .fill }}"></path>
            <path d="M59.3333333,17.0000717 C59.3333333,19.3933279 57.3931846,21.3333333 54.9999283,21.3333333 C52.6068154,21.3333333 50.6666667,19.3933279 50.6666667,17.0000717 C50.6666667,14.6068154 52.6068154,12.6666667 54.9999283,12.6666667 C57.3931846,12.6666667 59.3333333,14.6068154 59.3333333,17.0000717" id="Fill-5" fill="{{ .fill }}"></path>
        </g>
    </g>
</svg>