<svg fill="{{ .fill }}" width="{{ .width }}" height="{{ .height }}" viewBox="0 0 72 72" version="1.1" xmlns="http://www.w3.org/2000/svg" xmlns:xlink="http://www.w3.org/1999/xlink">
    <title>Fill 1</title>
    <g id="Page-1" stroke="none" stroke-width="1" fill="none" fill-rule="evenodd">
        <path d="M60,57 L51,57 C51,57 51,44.796 51,40.188 C51,30.084 39,30.849 39,40.188 C39,45.117 39,57 39,57 L30,57 L30,24 L39,24 L39,29.295 C43.188,21.537 60,20.964 60,36.723 C60,45.294 60,57 60,57 Z M19.5,20.196 C16.602,20.196 14.25,17.826 14.25,14.904 C14.25,11.982 16.602,9.612 19.5,9.612 C22.401,9.612 24.75,11.982 24.75,14.904 C24.75,17.826 22.401,20.196 19.5,20.196 Z M15,57 L24,57 L24,24 L15,24 L15,57 Z M15,0 C6.717,0 0,6.717 0,15 L0,57 C0,65.283 6.717,72 15,72 L57,72 C65.286,72 72,65.283 72,57 L72,15 C72,6.717 65.286,0 57,0 L15,0 Z" id="Fill-1" fill="{{ .fill }}"></path>
    </g>
</svg>